<svg viewBox="0 0 100 100" xmlns="http://www.w3.org/2000/svg" role="img" aria-label="plumb-line">
  <!-- App-tile favicon: the PL ligature in paper on an ink tile, Plumb peeking
       over the foot. Same construction as logo.svg, scaled to the tile. -->
  <rect width="100" height="100" rx="22" fill="#1f2328"/>
  <defs>
    <clipPath id="notch-fav"><rect x="19.8" y="60" width="60" height="59"/></clipPath>
  </defs>
  <g transform="translate(24,-8) scale(0.78)">
    <g clip-path="url(#notch-fav)">
      <g transform="translate(40,104) rotate(-8) scale(0.135) translate(-322,-330)">
        <g fill="none" stroke="#141414" stroke-width="9" stroke-linecap="round" stroke-linejoin="round">
          <line x1="300" y1="180" x2="300" y2="206"/>
          <circle cx="300" cy="152" r="30" fill="#3fb043"/>
          <path fill="#2e9e3a" d="M 296 204 C 218 204 166 246 164 316 C 162 388 200 440 292 446 C 396 452 480 414 480 338 C 480 260 402 204 296 204 Z"/>
          <ellipse cx="244" cy="322" rx="21" ry="30" fill="#141414" stroke="none"/>
          <ellipse cx="378" cy="318" rx="31" ry="44" fill="#141414" stroke="none"/>
        </g>
      </g>
    </g>
    <path d="M19.80 100L6.60 100L6.60 30L35.40 30Q42 30 47.05 32.65Q52.10 35.30 54.95 40.10Q57.80 44.90 57.80 51.50L57.80 52.90Q57.80 59.40 54.85 64.25Q51.90 69.10 46.85 71.75Q41.80 74.40 35.40 74.40L19.80 74.40L19.80 100M19.80 42L19.80 62.40L34.10 62.40Q38.80 62.40 41.70 59.80Q44.60 57.20 44.60 52.70L44.60 51.70Q44.60 47.20 41.70 44.60Q38.80 42 34.10 42" fill="#f0f6fc"/>
    <rect x="6.6" y="98.0" width="13.2" height="22.0" fill="#f0f6fc"/>
    <path d="M6.6 119 L43.4 119 A6.6 6.6 0 0 1 43.4 132.2 L6.6 132.2 Z" fill="#f0f6fc"/>
  </g>
</svg>
