<svg viewBox="0 0 100 100" xmlns="http://www.w3.org/2000/svg" role="img" aria-label="plumb-line">
  <!-- App-tile favicon: white P + reversed-L foot with the green plumb bob,
       on an ink tile so it has contrast on any light/dark browser tab. -->
  <rect width="100" height="100" rx="22" fill="#1f2328"/>
  <g transform="translate(26.8,-2.1) scale(0.65)">
    <path d="M19.80 100L6.60 100L6.60 30L35.40 30Q42 30 47.05 32.65Q52.10 35.30 54.95 40.10Q57.80 44.90 57.80 51.50L57.80 52.90Q57.80 59.40 54.85 64.25Q51.90 69.10 46.85 71.75Q41.80 74.40 35.40 74.40L19.80 74.40L19.80 100M19.80 42L19.80 62.40L34.10 62.40Q38.80 62.40 41.70 59.80Q44.60 57.20 44.60 52.70L44.60 51.70Q44.60 47.20 41.70 44.60Q38.80 42 34.10 42" fill="#f0f6fc"/>
    <rect x="6.6" y="98.0" width="13.2" height="22.0" fill="#f0f6fc"/>
    <path d="M 6.6,119 L 46.6,119 Q 48.6,119 48.6,120.5 C 48.1,125.6 52.1,126.3 53.6,130.7 Q 53.6,132.2 51.6,132.2 L 6.6,132.2 Z" fill="#f0f6fc"/>
    <line x1="57.8" y1="51.5" x2="57.8" y2="107.2" stroke="#8a96a3" stroke-width="2.4" stroke-linecap="round"/>
    <path d="M 57.8,106.2 C 64.8,106.2 64.8,115.2 61.65,121.2 C 59.55,125.2 57.8,130.2 57.8,132.2 C 57.8,130.2 56.05,125.2 53.95,121.2 C 50.8,115.2 50.8,106.2 57.8,106.2 Z" fill="#2da44e" stroke="#1a7f37" stroke-width="0.5"/>
  </g>
</svg>
