<svg viewBox="-1.4 22.0 74.5 116.2" xmlns="http://www.w3.org/2000/svg" role="img" aria-label="plumb-line logo">
  <defs>
    <linearGradient id="bob" x1="0" y1="0" x2="1" y2="0">
      <stop offset="0%" stop-color="#92400e"/><stop offset="42%" stop-color="#fcd34d"/>
      <stop offset="60%" stop-color="#f59e0b"/><stop offset="100%" stop-color="#92400e"/>
    </linearGradient>
  </defs>
  <path d="M19.80 100L6.60 100L6.60 30L35.40 30Q42 30 47.05 32.65Q52.10 35.30 54.95 40.10Q57.80 44.90 57.80 51.50L57.80 52.90Q57.80 59.40 54.85 64.25Q51.90 69.10 46.85 71.75Q41.80 74.40 35.40 74.40L19.80 74.40L19.80 100M19.80 42L19.80 62.40L34.10 62.40Q38.80 62.40 41.70 59.80Q44.60 57.20 44.60 52.70L44.60 51.70Q44.60 47.20 41.70 44.60Q38.80 42 34.10 42" fill="#1f2328"/>
  <rect x="6.6" y="98.0" width="13.2" height="22.0" fill="#1f2328"/>
  <path d="M 6.6000000000000005,118.99999999999999
    L 46.3,118.99999999999999
    Q 48.3,118.99999999999999 48.3,120.5
    C 47.8,125.6 52.1,126.3 53.6,130.7
    Q 53.6,132.2 51.6,132.2
    L 6.6000000000000005,132.2 Z" fill="#1f2328"/>
  <line x1="57.8" y1="51.5" x2="57.8" y2="110.2" stroke="#aab4c0" stroke-width="2" stroke-linecap="round"/>
  <circle cx="57.8" cy="51.5" r="2.7" fill="#1f2328"/>
  <circle cx="57.8" cy="75.0" r="2.3" fill="#2da44e"/>
  <circle cx="57.8" cy="92.6" r="2.3" fill="#2da44e"/>
  <path d="M 57.800000000000004,109.19999999999999
    C 65.10000000000001,110.19999999999999 65.10000000000001,121.19999999999999 62.32600000000001,126.19999999999999
    C 60.428000000000004,129.7 59.406000000000006,132.2 57.800000000000004,132.2
    C 56.194,132.2 55.172000000000004,129.7 53.274,126.19999999999999
    C 50.50000000000001,121.19999999999999 50.50000000000001,110.19999999999999 57.800000000000004,109.19999999999999 Z" fill="url(#bob)" stroke="#92400e" stroke-width="0.5"/>
</svg>