<svg viewBox="-1.4 22.0 67.8 118.2" xmlns="http://www.w3.org/2000/svg" role="img" aria-label="plumb-line logo">
  <defs>
    <linearGradient id="bob" x1="0" y1="0" x2="1" y2="0">
      <stop offset="0%" stop-color="#2ea043"/><stop offset="42%" stop-color="#56d364"/>
      <stop offset="60%" stop-color="#3fb950"/><stop offset="100%" stop-color="#2ea043"/>
    </linearGradient>
  </defs>
  <path d="M19.80 100L6.60 100L6.60 30L35.40 30Q42 30 47.05 32.65Q52.10 35.30 54.95 40.10Q57.80 44.90 57.80 51.50L57.80 52.90Q57.80 59.40 54.85 64.25Q51.90 69.10 46.85 71.75Q41.80 74.40 35.40 74.40L19.80 74.40L19.80 100M19.80 42L19.80 62.40L34.10 62.40Q38.80 62.40 41.70 59.80Q44.60 57.20 44.60 52.70L44.60 51.70Q44.60 47.20 41.70 44.60Q38.80 42 34.10 42" fill="#e6edf3"/>
  <rect x="6.6" y="98.0" width="13.2" height="34.2" fill="#e6edf3"/>
  <rect x="6.6" y="119.0" width="51.2" height="13.2" rx="2.1" fill="#e6edf3"/>
  <line x1="51.2" y1="48.9" x2="51.2" y2="94.0" stroke="#7d8896" stroke-width="2.2" stroke-linecap="round"/>
  <circle cx="51.2" cy="48.9" r="3" fill="#e6edf3"/>
  <circle cx="51.2" cy="65.1" r="2.4" fill="#7d8896"/>
  <circle cx="51.2" cy="77.8" r="2.4" fill="#7d8896"/>
  <path d="M 51.2,92.99999999999999
    C 58.400000000000006,92.99999999999999 58.400000000000006,101.99999999999999 55.160000000000004,107.99999999999999
    C 53,111.99999999999999 51.2,116.99999999999999 51.2,118.99999999999999
    C 51.2,116.99999999999999 49.400000000000006,111.99999999999999 47.24,107.99999999999999
    C 44,101.99999999999999 44,92.99999999999999 51.2,92.99999999999999 Z" fill="url(#bob)" stroke="#2ea043" stroke-width="0.5"/>
</svg>